<svg xmlns="http://www.w3.org/2000/svg" width="94" height="52" viewBox="0 0 94 52">
  <g id="logo-w" transform="translate(-70 -19)">
    <rect id="사각형_15" data-name="사각형 15" width="94" height="52" transform="translate(70 19)" fill="none"/>
    <g id="logo-w-2" data-name="logo-w" transform="translate(75.34 22.812)">
      <g id="그룹_4" data-name="그룹 4" transform="translate(4.38 32.229)">
        <path id="합치기_1" data-name="합치기 1" d="M55.459,9.154c0-1.469,1.906-2.663,4.248-2.663s4.25,1.194,4.25,2.663-1.906,2.661-4.25,2.661S55.459,10.621,55.459,9.154Zm1.88-.04c0,.788,1.058,1.429,2.36,1.429s2.36-.64,2.36-1.429S61,7.689,59.7,7.689,57.339,8.329,57.339,9.114Zm-15.391.04c0-1.469,1.906-2.663,4.249-2.663s4.249,1.194,4.249,2.663-1.906,2.661-4.249,2.661S41.948,10.621,41.948,9.154Zm1.879-.04c0,.788,1.06,1.429,2.361,1.429s2.359-.64,2.359-1.429S47.49,7.689,46.188,7.689,43.827,8.329,43.827,9.114Zm-15.885.04c0-1.469,1.906-2.663,4.25-2.663S36.44,7.685,36.44,9.154s-1.906,2.661-4.247,2.661S27.942,10.621,27.942,9.154Zm1.881-.04c0,.788,1.057,1.429,2.36,1.429s2.359-.64,2.359-1.429-1.058-1.425-2.359-1.425S29.823,8.329,29.823,9.114Zm-8.388,2.3V8.424H13.867V7.246h3.756V5.906H13.406V4.728H21a2.77,2.77,0,0,0,.4-1.551c0-.08,0-.129,0-.133V2.124H14V.94h9.33V2.563a6.629,6.629,0,0,1-.261,2.166h.989V5.906H19.565V7.246H23.38v4.17ZM.8,11.415V7.287H2.751V10.2h7.07v1.21Zm74.812-.374V.71H77.5V3.921h1.375V5.175H77.5v5.866Zm-8.523-2.07s2.663-1.442,2.663-5.932V.814h2.083v2.2c0,4.41,2.992,5.938,2.992,5.938v1.2a5.9,5.9,0,0,1-4-2.762,5.318,5.318,0,0,1-3.739,2.786Zm-59.2-.748c-.006,0,0-7.431,0-7.431H9.82V2.634h1.414V3.806H9.82V8.223ZM48.748.461h1.891V2.156h1.416V3.329H50.638c0,.31,0,1.74,0,3.288H48.746v.006S48.748.461,48.748.461ZM.222,3.969A2.631,2.631,0,0,1,.961,2.3H0V1.113H2.476V.224H4.367s0,.739,0,.889H6.914V2.3H5.877a2.63,2.63,0,0,1,.738,1.671,2.954,2.954,0,0,1-3.2,2.618A2.954,2.954,0,0,1,.222,3.969Zm1.83-.07A1.44,1.44,0,0,0,3.42,5.4,1.44,1.44,0,0,0,4.788,3.9,1.44,1.44,0,0,0,3.42,2.4,1.44,1.44,0,0,0,2.052,3.9ZM40.928,3.78a2.176,2.176,0,0,1,1.044-1.761H40.749V.888h2.539V0h1.89V.888h2.609v1.13H46.5A2.177,2.177,0,0,1,47.545,3.78c0,1.333-1.484,2.418-3.309,2.418S40.928,5.113,40.928,3.78Zm1.887-.106a1.425,1.425,0,0,0,2.831,0,1.425,1.425,0,0,0-2.831,0ZM54.421,6.1V4.9h3.5c0-.212,0-.164-.013-1.752H59.9c0,1.588,0,1.542.006,1.752l2.25-.007A3.252,3.252,0,0,0,62.57,3.24c0-.127,0-.2,0-.208V1.941H55.138V.738h9.4v1.8a7,7,0,0,1-.277,2.355l1.019.008V6.1Zm-27.515,0V4.9h3.5c0-.212,0-.164-.012-1.752h2c0,1.588,0,1.542,0,1.752L34.64,4.89a3.263,3.263,0,0,0,.415-1.651c0-.127-.006-.2-.006-.208V1.941H27.624V.738h9.4v1.8a6.979,6.979,0,0,1-.278,2.355l1.019.008V6.1Z" fill="#fff"/>
      </g>
      <path id="합치기_2" data-name="합치기 2" d="M61.8,17.786v0a.545.545,0,0,0-.016-.059q-.072-.222-.139-.448c-.768-2.107-3.561-2.586-4.5-2.694-.159-.016-.322-.028-.5-.033h.041l9.924-.044c.106,0,.244,0,.406,0a5.106,5.106,0,0,1,2.752.462c1.012.757,2.487,3.6,5.713,4.219a8.98,8.98,0,0,0,2.081.233,14.476,14.476,0,0,0,4.994-.973l.247,6.969A27.48,27.48,0,0,1,75.9,26.425C69.278,26.425,63.719,23.575,61.8,17.786ZM50.338,25.75l-2.82-9.2s-.625-2.027-4.466-2.027h9.5s3.6-.117,4.453,2.02l3.283,9.208Zm-20.6,0,0-.015H20.3L14.89,16.527a3.959,3.959,0,0,0-2.761-2.017H20.6a6.689,6.689,0,0,1,5.459,3.172l4.318,6.237,2.315-6.6.275-.78s.807-2.021-3.156-2.021h8.8c.107,0,.211,0,.31.009,3.285.132,2.759,2.383,2.759,2.383l-.146.74-2.295,8.083H39.19l0,.015ZM4.582,25.736V17.683S4.524,14.8.009,14.51H10.56s3.51-.04,3.51,3.174v8.052Zm62.974-14.8c-.062,0-.118,0-.178,0H56.665a6.155,6.155,0,0,0,5.6-3.342,12.375,12.375,0,0,1,6.5-6.194l0,.007A18.088,18.088,0,0,1,76.071,0a29.494,29.494,0,0,1,6.737.924c0,.338-.247,6.383-.247,6.966a10.87,10.87,0,0,0-4.823-1.337,9.4,9.4,0,0,0-2.15.24,8.026,8.026,0,0,0-4.529,2.555c-1.578,1.429-1.874,1.474-3.048,1.586-.108.007-.2.009-.27.009S67.61,10.941,67.556,10.939Zm-27.584,0H30.99c4.248-.263,5.1-3.165,5.1-3.165l2.373-6.748H51.527L53.919,7.77c1,3.274-2.621,3.151-2.621,3.151H42.681c4.026-.216,2.664-3.151,2.664-3.151L44.87,6.335H44.8L44.307,7.77a4.286,4.286,0,0,1-4.145,3.171C40.042,10.942,39.972,10.935,39.972,10.935Zm-29.8,0H0C4.525,10.615,4.583,7.77,4.583,7.77V1.022l9.488,0V7.789c0,3.009-3.209,3.148-3.8,3.148Zm10.511,0H11.952a4.682,4.682,0,0,0,3.344-2.1l4.759-7.809h10.8L25.994,7.77a6.866,6.866,0,0,1-5.309,3.165Z" fill="#fff"/>
    </g>
  </g>
</svg>
