<svg xmlns="http://www.w3.org/2000/svg" width="50" height="50" viewBox="0 0 50 50">
  <g id="ico-reservation" transform="translate(-0.206 -0.311)">
    <rect id="사각형_267" data-name="사각형 267" width="50" height="50" transform="translate(0.206 0.311)" fill="none"/>
    <g id="그룹_4770" data-name="그룹 4770" transform="translate(4.635 4.209)">
      <path id="패스_15014" data-name="패스 15014" d="M15,19.71H8.428a5.525,5.525,0,0,1-4.059-1.682,5.541,5.541,0,0,1-1.682-4.065A5.543,5.543,0,0,1,4.369,9.9,5.529,5.529,0,0,1,7.605,8.271,3.546,3.546,0,0,1,7.466,7.3a3.48,3.48,0,0,1,3.478-3.484,3.329,3.329,0,0,1,2.148.738,7.227,7.227,0,0,1,1.174-1.519A6.682,6.682,0,0,1,19.177,1,6.7,6.7,0,0,1,24.1,3.033a6.72,6.72,0,0,1,2.039,4.924c0,.089,0,.178-.006.266a5.739,5.739,0,0,1,5.492,5.74,5.745,5.745,0,0,1-5.6,5.747h-5.3m.422,2.855h.073a4.471,4.471,0,0,1,3.461,1.573l3.031,3.272a6.772,6.772,0,0,0,2.456,1.524,5.326,5.326,0,0,0,.828.2l9.146,1.271q2.265.343,1.973,2.4-.132.876-.3,1.754-.179.924-.4,1.851a2.393,2.393,0,0,1-.206.441M18.409,13a2.389,2.389,0,0,0-3.375,3.381,2.3,2.3,0,0,0,1.688.69,2.444,2.444,0,0,0,.5-.042A2.4,2.4,0,0,0,18.409,13ZM2.354,36.648c-.016-.03-.032-.06-.048-.091a5.941,5.941,0,0,1-.266-.6l-.859-2.317a3.433,3.433,0,0,1,.913-3.581l5.916-5.807a6.348,6.348,0,0,1,4.246-1.687h3.159m2.431,7.011a2.358,2.358,0,0,0,3.369,0,2.41,2.41,0,0,0,0-3.388,2.286,2.286,0,0,0-1.687-.7,2.6,2.6,0,0,0-.448.036l-.024.012a2.249,2.249,0,0,0-1.21.653,2.4,2.4,0,0,0,0,3.388ZM5.784,41.959a4.133,4.133,0,0,0,3.03,1.246,4.134,4.134,0,0,0,3.031-1.246,4.1,4.1,0,0,0,1.24-2.789c0-.078.005-.157.006-.236a4.244,4.244,0,0,0-4.277-4.271,4.125,4.125,0,0,0-3.03,1.24,4.07,4.07,0,0,0-1.192,2.335,4.777,4.777,0,0,0-.06.7A4.128,4.128,0,0,0,5.784,41.959Zm33.137-3.848A4.284,4.284,0,0,0,31.706,35.9a4.129,4.129,0,0,0-1.247,3.03c0,.08,0,.158,0,.236a4.271,4.271,0,0,0,8.535-.236A4.7,4.7,0,0,0,38.921,38.112ZM30.459,39.17H13.086m5.97-13.635-1.834-8.511" transform="translate(-1.001 -1)" fill="none" stroke="#8f97b2" stroke-linecap="round" stroke-linejoin="round" stroke-width="2.5"/>
    </g>
  </g>
</svg>
