<svg xmlns="http://www.w3.org/2000/svg" width="50" height="50" viewBox="0 0 50 50">
  <g id="ico-inquiry-hover" transform="translate(-0.172 -0.172)">
    <rect id="사각형_267" data-name="사각형 267" width="50" height="50" transform="translate(0.172 0.172)" fill="none"/>
    <g id="그룹_4768" data-name="그룹 4768" transform="translate(7.382 9.625)">
      <path id="패스_15013" data-name="패스 15013" d="M15.408,8.817a3.128,3.128,0,0,1,.863,2.177,2.989,2.989,0,0,1-.863,2.138,3.5,3.5,0,0,1-2.441.994H8.6V7.872h4.365A3.357,3.357,0,0,1,15.408,8.817ZM19.1,2.439A11.436,11.436,0,0,0,13.3,1H1V32.06H8.6v-11.1H13.3a11.43,11.43,0,0,0,5.8-1.447,9.835,9.835,0,0,0,3.584-3.7,10.02,10.02,0,0,0,1.191-4.816,10.3,10.3,0,0,0-1.191-4.866A9.821,9.821,0,0,0,19.1,2.439ZM29.429,14.587a8.634,8.634,0,0,1,.312,2.351,8.205,8.205,0,0,1-8.219,8.218,8.543,8.543,0,0,1-2.342-.312m16.956-12.2a15.731,15.731,0,0,1,.575,4.282,14.6,14.6,0,0,1-4.438,10.717,14.624,14.624,0,0,1-10.726,4.447,15.623,15.623,0,0,1-4.3-.584" transform="translate(-1 -1)" fill="none" stroke="#fff" stroke-linecap="round" stroke-linejoin="round" stroke-width="2.5"/>
    </g>
  </g>
</svg>
