<svg xmlns="http://www.w3.org/2000/svg" width="87.311" height="52" viewBox="0 0 87.311 52">
  <g id="footer-logo" transform="translate(0 0)">
    <g id="그룹_4" data-name="그룹 4" transform="translate(4.593 33.797)">
      <path id="합치기_3" data-name="합치기 3" d="M73.345,1.778a1.724,1.724,0,1,1,3.446,0,1.724,1.724,0,1,1-3.446,0Zm.945,0c0,.567.222,1.1.778,1.1s.777-.531.777-1.1c0-.6-.222-1.1-.777-1.1S74.29,1.183,74.29,1.778Zm-15.941,0a1.725,1.725,0,1,1,3.448,0,1.725,1.725,0,1,1-3.448,0Zm.946,0c0,.567.222,1.1.779,1.1s.778-.531.778-1.1c0-.6-.221-1.1-.778-1.1S59.294,1.183,59.294,1.778Zm-11.069,0a1.724,1.724,0,1,1,3.447,0,1.724,1.724,0,1,1-3.447,0Zm.946,0c0,.567.222,1.1.778,1.1s.778-.531.778-1.1c0-.6-.222-1.1-.778-1.1S49.171,1.183,49.171,1.778Zm-4.23.015A1.744,1.744,0,0,1,46.91,0a3.587,3.587,0,0,1,1.02.177l-.074.743a1.815,1.815,0,0,0-.9-.241,1.044,1.044,0,0,0-1.073,1.113,1.052,1.052,0,0,0,1.148,1.083,2.44,2.44,0,0,0,.857-.176l.044.718a3.832,3.832,0,0,1-1.019.138A1.772,1.772,0,0,1,44.941,1.793ZM40.484,3.408l.079-.759a2.021,2.021,0,0,0,.945.226c.291,0,.566-.059.566-.335,0-.641-1.625-.237-1.625-1.486,0-.828.808-1.055,1.5-1.055a2.877,2.877,0,0,1,.886.129l-.059.708A1.852,1.852,0,0,0,42.011.68C41.78.68,41.4.7,41.4,1c0,.556,1.624.182,1.624,1.423,0,.89-.747,1.133-1.511,1.133A3.612,3.612,0,0,1,40.484,3.408Zm-9.824-1.63a1.724,1.724,0,1,1,3.447,0,1.724,1.724,0,1,1-3.447,0Zm.945,0c0,.567.222,1.1.779,1.1s.777-.531.777-1.1c0-.6-.222-1.1-.777-1.1S31.6,1.183,31.6,1.778Zm-28.176,0A1.589,1.589,0,0,1,5.152,0,1.589,1.589,0,0,1,6.875,1.778,1.6,1.6,0,0,1,5.152,3.556,1.6,1.6,0,0,1,3.429,1.778Zm.945,0c0,.567.222,1.1.778,1.1s.777-.531.777-1.1c0-.6-.222-1.1-.777-1.1S4.374,1.183,4.374,1.778ZM55.42,3.5V.059h1.093c1.049,0,1.54.355,1.54,1.128,0,.694-.505,1.108-1.362,1.108h-.355V3.5Zm.915-1.852h.237c.315,0,.567-.114.567-.472s-.252-.464-.567-.464h-.237ZM1.995,3.5.927,1.935H.917V3.5H0V.059H.917v1.4h.01L1.959.059h1.1L1.793,1.66,3.162,3.5Zm77.346,0-1.2-2.349h-.009L78.16,3.5h-.841V.059h1.166l1.163,2.335h.01L79.643.059h.838V3.5Zm-9.66,0V.739h-.847V.059h2.609v.68H70.6V3.5Zm-1.621,0L67.8,2.763h-1.29l-.271.734h-.93l1.3-3.438H67.74L69.064,3.5ZM66.726,2.113h.862L67.179.768h-.01ZM64.234,3.5l-.2-.621c-.187-.591-.3-.739-.645-.739H63.2V3.5h-.916V.059h1.635c.611,0,1.108.275,1.108.866a.8.8,0,0,1-.659.868V1.8c.3.079.314.34.487.759l.335.936ZM63.2,1.488h.241c.3,0,.67-.01.67-.4,0-.319-.319-.379-.67-.379H63.2ZM54.11,3.5l-.2-.621c-.186-.59-.305-.739-.645-.739h-.191V3.5H52.16V.059h1.635c.61,0,1.108.276,1.108.867a.8.8,0,0,1-.661.867V1.8c.3.079.316.339.488.759l.336.935ZM53.076,1.488h.241c.3,0,.669-.01.669-.4,0-.32-.32-.379-.669-.379h-.241ZM38.406,3.5V.739h-.847V.059h2.609v.68h-.847V3.5Zm-1.862,0-.2-.621c-.187-.591-.3-.739-.645-.739H35.51V3.5h-.915V.059h1.634c.61,0,1.107.275,1.107.866a.8.8,0,0,1-.66.868V1.8c.3.079.316.34.488.759L37.5,3.5ZM35.51,1.488h.242c.3,0,.669-.01.669-.4,0-.319-.32-.379-.669-.379H35.51ZM27.729,3.5V.059h1.093c1.049,0,1.542.354,1.542,1.127,0,.694-.508,1.108-1.365,1.108h-.355V3.5Zm.916-1.852h.237c.315,0,.565-.114.565-.472S29.2.708,28.883.708h-.237ZM26.419,3.5l-.2-.621c-.187-.591-.306-.739-.645-.739h-.192V3.5h-.916V.059H26.1c.61,0,1.107.275,1.107.866a.8.8,0,0,1-.659.868V1.8c.3.079.315.34.487.759l.335.936ZM25.386,1.488h.241c.3,0,.67-.01.67-.4,0-.319-.321-.379-.67-.379h-.241ZM21.486,3.5l-.256-.734H19.94l-.272.734h-.93l1.3-3.438h1.121L22.49,3.5ZM20.15,2.113h.863L20.6.768h-.01Zm-4,1.384-.256-.734H14.6L14.33,3.5H13.4L14.7.059h1.122L17.152,3.5ZM14.814,2.112h.861L15.266.768h-.01ZM10.647,3.5V.059h2.423v.65H11.564v.708h1.423v.65H11.564v.779h1.56V3.5Zm-1.334,0-.2-.621c-.188-.591-.306-.739-.646-.739H8.279V3.5H7.363V.059H9c.61,0,1.107.275,1.107.866a.8.8,0,0,1-.66.868V1.8c.3.079.315.34.488.759l.335.936ZM8.279,1.488H8.52c.3,0,.67-.01.67-.4,0-.319-.321-.379-.67-.379H8.279ZM71.872,3.5V.059h.917V3.5Zm-48.978,0V.059h.915V3.5Z" transform="translate(0.854 14.647)" fill="#484747"/>
      <path id="합치기_1" data-name="합치기 1" d="M58.158,9.6c0-1.54,2-2.792,4.454-2.792S67.07,8.059,67.07,9.6s-2,2.791-4.457,2.791S58.158,11.138,58.158,9.6Zm1.971-.041c0,.827,1.11,1.5,2.475,1.5s2.475-.672,2.475-1.5S63.968,8.063,62.6,8.063,60.129,8.735,60.129,9.558ZM43.989,9.6c0-1.54,2-2.792,4.455-2.792S52.9,8.059,52.9,9.6s-2,2.791-4.456,2.791S43.989,11.138,43.989,9.6Zm1.97-.041c0,.827,1.111,1.5,2.476,1.5s2.474-.672,2.474-1.5S49.8,8.063,48.436,8.063,45.96,8.735,45.96,9.558ZM29.3,9.6c0-1.54,2-2.792,4.457-2.792S38.213,8.059,38.213,9.6s-2,2.791-4.454,2.791S29.3,11.138,29.3,9.6Zm1.972-.041c0,.827,1.109,1.5,2.475,1.5s2.474-.672,2.474-1.5-1.11-1.494-2.474-1.494S31.275,8.735,31.275,9.558Zm-8.8,2.415V8.834H14.542V7.6h3.939V6.193H14.059V4.959h7.959a2.907,2.907,0,0,0,.414-1.626c0-.084,0-.135,0-.139V2.227H14.684V.986h9.784v1.7a6.968,6.968,0,0,1-.274,2.272H25.23V6.193H20.517V7.6h4v4.373Zm-21.644,0V7.642H2.885V10.7H10.3v1.269Zm78.453-.392V.745h1.986V4.112h1.442V5.427H81.275v6.151ZM70.351,9.408s2.793-1.512,2.793-6.22V.853h2.185v2.31c0,4.625,3.138,6.228,3.138,6.228v1.254a6.192,6.192,0,0,1-4.195-2.9,5.578,5.578,0,0,1-3.921,2.921ZM8.267,8.623c-.007,0,0-7.792,0-7.792H10.3V2.762h1.483V3.991H10.3V8.623ZM51.12.484H53.1V2.261h1.485v1.23H53.1c0,.325,0,1.824,0,3.448H51.119s0,.006,0,.006S51.12.484,51.12.484ZM.233,4.162a2.757,2.757,0,0,1,.775-1.753H0V1.168H2.6V.235H4.58s0,.774,0,.933H7.251V2.409H6.163a2.757,2.757,0,0,1,.774,1.753c0,1.515-1.5,2.745-3.353,2.745S.233,5.677.233,4.162Zm1.919-.073A1.509,1.509,0,0,0,3.586,5.66,1.51,1.51,0,0,0,5.021,4.089,1.51,1.51,0,0,0,3.586,2.517,1.51,1.51,0,0,0,2.152,4.089ZM42.92,3.964a2.281,2.281,0,0,1,1.095-1.847H42.732V.932h2.663V0h1.982V.932h2.737V2.117h-1.35a2.281,2.281,0,0,1,1.095,1.847c0,1.4-1.556,2.535-3.469,2.535S42.92,5.362,42.92,3.964ZM44.9,3.852a1.495,1.495,0,0,0,2.969,0,1.495,1.495,0,0,0-2.969,0Zm12.17,2.54V5.136h3.666c0-.222,0-.172-.013-1.837h2.091c0,1.665,0,1.617.007,1.837l2.36-.007A3.411,3.411,0,0,0,65.615,3.4c0-.133-.005-.212-.005-.218V2.035H57.822V.774h9.86V2.659a7.335,7.335,0,0,1-.29,2.47l1.068.008V6.392Zm-28.855,0V5.136h3.666c0-.222,0-.172-.013-1.837H33.96c0,1.665,0,1.617,0,1.837l2.362-.007A3.423,3.423,0,0,0,36.761,3.4c0-.133-.006-.212-.006-.218V2.035H28.968V.774h9.86V2.659a7.318,7.318,0,0,1-.292,2.47l1.068.008V6.392Z" transform="translate(0)" fill="#484747"/>
    </g>
    <path id="합치기_2" data-name="합치기 2" d="M64.8,18.652v0a.58.58,0,0,0-.017-.062q-.076-.233-.146-.47c-.805-2.209-3.734-2.712-4.714-2.825-.167-.017-.338-.029-.519-.035h.043l10.407-.046c.111,0,.256,0,.426,0a5.354,5.354,0,0,1,2.887.485c1.061.793,2.607,3.774,5.991,4.425a9.423,9.423,0,0,0,2.182.245,15.189,15.189,0,0,0,5.237-1.02l.259,7.308a28.815,28.815,0,0,1-7.243,1.058C72.65,27.712,66.82,24.723,64.8,18.652ZM52.788,27,49.83,17.354s-.655-2.125-4.683-2.125h9.96s3.78-.123,4.67,2.118L63.22,27ZM31.18,27l0-.016H21.291l-5.677-9.656a4.151,4.151,0,0,0-2.9-2.115H21.6s3.226-.2,5.725,3.327l4.528,6.541,2.428-6.919.288-.818s.847-2.119-3.309-2.119h9.233c.112,0,.221,0,.325.009,3.444.138,2.893,2.5,2.893,2.5l-.153.776-2.406,8.476H41.1l0,.016ZM4.805,26.988V18.544s-.061-3.023-4.8-3.328H11.074s3.68-.041,3.68,3.328v8.444ZM70.844,11.471c-.065,0-.123,0-.186,0H59.423a6.455,6.455,0,0,0,5.869-3.5,12.977,12.977,0,0,1,6.821-6.5l0,.007A18.966,18.966,0,0,1,79.773,0a30.927,30.927,0,0,1,7.065.969c0,.354-.259,6.694-.259,7.3a11.4,11.4,0,0,0-5.057-1.4,9.854,9.854,0,0,0-2.255.252A8.415,8.415,0,0,0,74.517,9.8c-1.655,1.5-1.965,1.545-3.2,1.663-.114.007-.206.01-.284.01S70.9,11.473,70.844,11.471Zm-28.926,0H32.5c4.455-.276,5.349-3.319,5.349-3.319l2.489-7.076h13.7l2.508,7.076c1.046,3.434-2.748,3.3-2.748,3.3H44.759c4.222-.226,2.794-3.3,2.794-3.3l-.5-1.5H46.98l-.516,1.5a4.494,4.494,0,0,1-4.346,3.326C41.99,11.474,41.918,11.468,41.918,11.468Zm-31.249,0H0c4.746-.336,4.806-3.319,4.806-3.319V1.072l9.95,0v7.1c0,3.155-3.365,3.3-3.988,3.3Zm11.023,0H12.534A4.91,4.91,0,0,0,16.04,9.261l4.99-8.188H32.355l-5.1,7.076a7.2,7.2,0,0,1-5.567,3.319Z" transform="translate(0 0)" fill="#484747"/>
  </g>
</svg>
