<?xml version="1.0" encoding="UTF-8"?><svg id="Layer_1" xmlns="http://www.w3.org/2000/svg" viewBox="0 0 306.81 23"><defs><style>.cls-1{fill:#039;}.cls-2{fill:#0082d5;}.cls-3{fill:#9c0;}</style></defs><g><path class="cls-1" d="m32.36,7.35c0-2.34.99-3.99,2.61-4.98,1.12-.69,2.56-1.03,4.29-1.03s3.12.34,4.26,1.03c1.62.99,2.58,2.64,2.58,4.98s-.96,3.99-2.58,4.98c-1.15.71-2.58,1.05-4.26,1.05s-3.17-.34-4.29-1.05c-1.62-.99-2.61-2.66-2.61-4.98Zm1.65,7h4.66v4.27h14.49v3.05h-19.15v-7.32Zm7.64-7c0-1.22-.29-2.08-.91-2.53-.37-.32-.88-.49-1.49-.49s-1.12.17-1.54.49c-.61.45-.88,1.31-.88,2.53s.27,2.1.88,2.58c.43.3.91.43,1.54.43s1.12-.13,1.49-.43c.61-.47.91-1.35.91-2.58Zm6.5-5.91h4.66v5.07h3.28v3.11h-3.28v5.93h-4.66V1.44Z"/><path class="cls-1" d="m60.97,1.57h4.63v3.03c0,3.5,1.76,5,4.9,5.69v3.16c-2.9-.3-5.73-1.44-7.19-2.88-1.44,1.5-4.26,2.75-7.24,3.14v-3.16c3.17-.77,4.9-2.51,4.9-5.95V1.57Zm-2.85,12.78h4.66v4.27h14.49v3.05h-19.15v-7.32Zm14.14-12.9h4.66v5.07h3.28v3.11h-3.28v5.93h-4.66V1.44Z"/></g><g><path class="cls-2" d="m299.08,1.5v19.02h-13.1V1.5h13.1Zm-8.38,15.86h3.67V4.71h-3.67v12.66Zm11.31-16.22h4.79v20.7h-4.79V1.15Z"/><path class="cls-2" d="m110.24,21.03h-24.13v-3.2h24.13v3.2Zm-6.03-11.6v-4.62h-17.03V1.54h21.83v7.33c0,2.39-.22,5.08-.71,6.96h-4.79c.49-1.83.71-4.33.71-6.41Z"/><path class="cls-2" d="m123.78,13.89h-11.12v-7.74h8.6v-1.82h-8.6V1.39h13.29v7.68h-8.63v1.91h7.1c2.25,0,3.51-.22,4.47-.72V1.15h4.79v15.02h-4.79v-3.09c-.93.57-2.52.81-5.1.81Zm10.22,4.84v3.11h-19.92v-6.89h4.79v3.77h15.12Z"/><path class="cls-2" d="m164.82,16.98h-4.39v-3.23h22.95v3.23h-4.37v4.87h-4.69v-4.87h-4.78v4.87h-4.72v-4.87Zm13.76-8.41h3.98v3.19h-21.3v-3.19h3.49v-4.23h-3.07V1.15h20.48v3.19h-3.1v1.55c0,.97-.16,2.01-.47,2.68Zm-4.28-4.23h-4.78v4.23h4.37c.27-.64.41-1.62.41-2.48v-1.75Z"/><path class="cls-2" d="m238.91,12.13h-3.15v-3.2h3.29c2.19,0,3.92-.09,5.1-.42.08-.66.11-1.33.11-2.05v-1.75h-8.36V1.5h13.1v4.51c0,8.57-4.11,13.17-13.23,14.76v-3.4c3.86-.88,6.33-2.7,7.56-5.59-1.1.24-2.58.35-4.41.35Zm12.57-10.98h4.79v7.98h3.53v3.23h-3.53v9.5h-4.79V1.15Z"/><path class="cls-2" d="m225.01,1.15h4.79v7.98h3.53v3.23h-3.53v9.5h-4.79V1.15Zm-9,.02c-3.85,0-6.97,3.12-6.97,6.97v5.72c0,3.85,3.12,6.97,6.97,6.97s6.97-3.12,6.97-6.97v-5.72c0-3.85-3.12-6.97-6.97-6.97Zm2.23,14.23c0,1.23-1,2.23-2.23,2.23s-2.23-1-2.23-2.23V6.61c0-1.23,1-2.23,2.23-2.23s2.23,1,2.23,2.23v8.79Z"/><path class="cls-2" d="m283.57,1.15v20.7h-4.25V1.15h4.25Zm-9.56,8.38h-4.19v2.64h4.19v2.75c-1.06.35-4.28,1.23-7.48,1.84V5.01h5.35V1.88h-9.65v18.81s1.1,0,1.11,0c.24-.02.49-.03.73-.05,3.6-.28,6.89-1.14,9.94-3.3v4.38h3.96V1.39h-3.96v8.14Z"/><path class="cls-2" d="m201.9,21.85v-3.9s-.12.07-.12.07c-2.95,1.72-6.62,2.27-9.18,2.42-.82.05-1.79.08-2.8.08-1.42,0-2.84-.05-4.01-.15V1.41h15.11l-2.96,3.56h-7.42v4.12h6.69l-3.02,3.63h-3.67v4.26h.08c3.86-.14,8.99-1.13,11.24-1.76l.06-.02v-3.23h-5.79l3.2-3.85,2.58-.02V1.15h4.72v20.7h-4.72Z"/><g><path class="cls-2" d="m139.68,8.6h-2.68v-2.92h2.79c2.16,0,4.05-.02,5.23-.27.05-.31.11-.66.11-1.04h-8.14V1.39h12.85v2.17c0,.66-.05,1.28-.16,1.86h3.53V1.15h4.79v11.64h-4.79v-4.18h-4.85c-2.03,2.85-6.11,4.31-11.94,4.64v-3.03c3.12-.22,5.37-.75,6.79-1.81-1.04.13-2.27.18-3.53.18Z"/><path class="cls-2" d="m138.42,13.65v8.2h13.35l1.63-2.76v2.76h4.61v-8.2h-19.59Zm15.01,5.3h-10.43v-2.02h10.43v2.02Z"/></g></g><g><path class="cls-2" d="m11.28,13.74c3.24,0,6.15,1.35,8.24,3.51h-8.01c-3.18,0-5.75-2.57-5.75-5.75s2.57-5.75,5.75-5.75h6.59L23.01,0h-11.5C5.15,0,0,5.15,0,11.5s5.15,11.5,11.5,11.5h11.5v-12.71h-8.78l-2.95,3.45Z"/><path class="cls-1" d="m17.25,0C11,0,5.92,4.99,5.76,11.2c.15-3.04,2.67-5.45,5.74-5.45h6.59L23.01,0h-5.75Z"/><path class="cls-1" d="m5.76,11.8c.16,6.21,5.24,11.2,11.49,11.2h5.75v-5.75h-11.5c-3.08,0-5.59-2.42-5.74-5.45Z"/><path class="cls-3" d="m14.22,10.29l-2.95,3.45c5.57.01,10.21,3.99,11.25,9.26h.48v-12.71h-8.78Z"/></g></svg>